<svg xmlns="http://www.w3.org/2000/svg" xmlns:xlink="http://www.w3.org/1999/xlink" width="250" zoomAndPan="magnify" viewBox="0 0 187.5 187.499992" height="250" preserveAspectRatio="xMidYMid meet" version="1.0"><path fill="#000000" d="M 152.886719 99.628906 C 151.746094 97.238281 149.804688 95.988281 147.570312 95.519531 C 148.152344 94.984375 148.640625 94.335938 149.089844 93.597656 C 150.160156 91.835938 150.628906 89.757812 150.675781 87.703125 C 150.765625 83.480469 149.042969 79.214844 146.410156 75.976562 C 141.382812 69.792969 132.25 69.859375 125.617188 73.632812 C 126.332031 70.058594 125.863281 66.171875 123.851562 63.179688 C 121.507812 59.652344 117.53125 57.777344 113.445312 57.128906 C 104.847656 55.789062 94.125 58.667969 88.542969 65.660156 C 86.488281 68.207031 85.683594 70.976562 85.929688 73.832031 C 85.257812 73.34375 84.542969 72.894531 83.917969 72.515625 C 82.109375 71.464844 80.121094 70.75 78.046875 70.460938 C 73.78125 69.878906 69.113281 71.265625 65.808594 74.035156 C 63.238281 76.179688 60.894531 79.417969 60 82.65625 C 59.621094 83.996094 59.417969 85.625 59.957031 86.945312 C 59.976562 87.011719 60.023438 87.078125 60.042969 87.167969 C 49.503906 82.746094 37.109375 100.074219 44.789062 109.433594 C 47.871094 113.183594 52.808594 114.613281 57.476562 115.238281 C 58.304688 121.828125 61.941406 127.566406 68.152344 130.382812 C 74.226562 133.152344 81.53125 132.859375 87.203125 129.265625 C 89.726562 127.65625 91.691406 125.535156 93.210938 123.078125 C 98.210938 130.425781 106.878906 135.230469 115.789062 131.410156 C 121.238281 129.066406 127.605469 123.058594 128.585938 116.667969 C 133.722656 120.355469 141.605469 120.464844 146.96875 117.429688 C 152.90625 114.054688 155.902344 105.90625 152.886719 99.628906 Z M 148.351562 111.265625 C 146.027344 114.480469 142.03125 115.597656 138.257812 115.441406 C 134.148438 115.261719 130.574219 113.207031 128.140625 109.945312 C 127.605469 109.230469 126.867188 108.988281 126.21875 109.054688 C 125.058594 108.851562 123.695312 109.8125 124.140625 111.21875 C 125.304688 114.769531 124.65625 117.921875 122.578125 120.980469 C 120.546875 123.949219 117.464844 126.472656 114.113281 127.8125 C 106.164062 131.007812 98.300781 125.335938 94.730469 118.390625 C 93.925781 116.824219 91.9375 117.496094 91.378906 118.835938 C 88.476562 125.78125 81.285156 129.445312 73.9375 128.4375 C 66.476562 127.433594 60.691406 121.582031 60.179688 113.988281 C 60.132812 113.164062 59.574219 112.671875 58.773438 112.582031 C 52.496094 111.867188 44.390625 109.03125 45.058594 101.347656 C 45.503906 96.167969 49.4375 91.03125 54.148438 88.953125 C 56.828125 87.769531 59.957031 87.726562 62.414062 89.46875 C 62.726562 89.691406 63.125 89.175781 62.835938 88.910156 C 62.679688 88.773438 62.546875 88.664062 62.390625 88.550781 C 62.34375 87.679688 61.765625 86.898438 61.765625 85.9375 C 61.742188 84.621094 62.253906 83.390625 62.8125 82.230469 C 63.976562 79.839844 65.738281 77.453125 67.90625 75.886719 C 70.71875 73.855469 74.582031 72.828125 78 73.519531 C 79.71875 73.878906 81.304688 74.59375 82.757812 75.554688 C 84.386719 76.625 85.570312 78.210938 87.15625 79.28125 C 88.453125 80.152344 89.769531 78.5 89.167969 77.273438 C 88.878906 76.671875 88.453125 76.113281 87.960938 75.574219 C 87.605469 69.144531 93.277344 64.097656 99.105469 61.886719 C 105.359375 59.519531 115.164062 58.335938 120.167969 63.917969 C 123.382812 67.492188 122.289062 72.246094 121.707031 76.511719 C 121.707031 76.535156 121.707031 76.558594 121.707031 76.582031 C 121.597656 76.691406 121.507812 76.78125 121.394531 76.894531 C 120.8125 77.519531 121.574219 78.589844 122.332031 78.097656 C 122.355469 78.078125 122.398438 78.054688 122.421875 78.03125 C 123.003906 78.457031 123.828125 78.433594 124.253906 77.585938 C 124.386719 77.339844 124.5 77.070312 124.609375 76.804688 C 130.597656 73.832031 138.859375 72.515625 143.4375 78.03125 C 145.449219 80.445312 146.765625 83.703125 146.855469 86.855469 C 146.96875 90.472656 145.113281 92.503906 142.65625 94.847656 C 141.941406 95.519531 142.164062 96.390625 142.769531 96.882812 C 142.902344 97.195312 143.191406 97.441406 143.660156 97.417969 C 151.253906 97.285156 151.8125 106.441406 148.351562 111.265625 Z M 148.351562 111.265625 " fill-opacity="1" fill-rule="nonzero"/></svg>