<svg xmlns="http://www.w3.org/2000/svg" xmlns:xlink="http://www.w3.org/1999/xlink" width="250" zoomAndPan="magnify" viewBox="0 0 187.5 187.499992" height="250" preserveAspectRatio="xMidYMid meet" version="1.0"><defs><clipPath id="d1aec3b7bb"><path d="M 24.339844 51.917969 L 162.722656 51.917969 L 162.722656 134.945312 L 24.339844 134.945312 Z M 24.339844 51.917969 " clip-rule="nonzero"/></clipPath></defs><g clip-path="url(#d1aec3b7bb)"><path fill="#000000" d="M 93.003906 135 C 91.140625 135.003906 89.296875 134.8125 87.476562 134.429688 C 85.652344 134.042969 83.890625 133.476562 82.1875 132.722656 C 80.484375 131.96875 78.878906 131.042969 77.371094 129.953125 C 75.859375 128.863281 74.480469 127.625 73.230469 126.246094 C 71.617188 127.71875 69.789062 128.847656 67.75 129.636719 C 65.710938 130.421875 63.597656 130.808594 61.410156 130.800781 C 60.210938 130.800781 59.023438 130.679688 57.847656 130.433594 C 56.671875 130.191406 55.53125 129.832031 54.429688 129.355469 C 53.328125 128.882812 52.285156 128.300781 51.300781 127.613281 C 50.320312 126.921875 49.414062 126.140625 48.589844 125.269531 C 47.960938 125.324219 47.339844 125.347656 46.734375 125.347656 C 34.390625 125.347656 24.351562 115.308594 24.351562 102.96875 C 24.347656 101.773438 24.441406 100.582031 24.632812 99.402344 C 24.824219 98.21875 25.105469 97.058594 25.480469 95.921875 C 25.855469 94.789062 26.320312 93.6875 26.875 92.625 C 27.425781 91.566406 28.058594 90.554688 28.773438 89.59375 C 29.488281 88.632812 30.277344 87.738281 31.136719 86.902344 C 31.996094 86.070312 32.914062 85.3125 33.894531 84.625 C 34.875 83.9375 35.90625 83.335938 36.984375 82.816406 C 38.0625 82.296875 39.175781 81.863281 40.320312 81.523438 C 40.347656 81.089844 40.386719 80.65625 40.441406 80.222656 C 40.496094 79.789062 40.5625 79.359375 40.640625 78.933594 C 40.71875 78.503906 40.8125 78.078125 40.917969 77.65625 C 41.023438 77.234375 41.144531 76.816406 41.277344 76.402344 C 41.40625 75.988281 41.554688 75.578125 41.710938 75.171875 C 41.867188 74.765625 42.035156 74.363281 42.21875 73.96875 C 42.402344 73.574219 42.59375 73.183594 42.800781 72.800781 C 43.007812 72.417969 43.226562 72.039062 43.453125 71.671875 C 43.683594 71.300781 43.925781 70.9375 44.175781 70.582031 C 44.429688 70.226562 44.691406 69.882812 44.964844 69.542969 C 45.238281 69.203125 45.519531 68.875 45.816406 68.550781 C 46.109375 68.230469 46.410156 67.917969 46.726562 67.617188 C 47.039062 67.3125 47.359375 67.019531 47.691406 66.738281 C 48.023438 66.457031 48.363281 66.183594 48.710938 65.921875 C 49.058594 65.660156 49.414062 65.410156 49.777344 65.171875 C 50.140625 64.929688 50.511719 64.703125 50.886719 64.484375 C 51.265625 64.269531 51.648438 64.0625 52.039062 63.871094 C 52.429688 63.675781 52.824219 63.496094 53.226562 63.328125 C 53.628906 63.160156 54.035156 63.003906 54.445312 62.859375 C 54.855469 62.714844 55.269531 62.585938 55.691406 62.46875 C 56.109375 62.351562 56.53125 62.246094 56.957031 62.152344 C 57.382812 62.0625 57.808594 61.984375 58.242188 61.917969 C 58.671875 61.851562 59.101562 61.800781 59.535156 61.761719 C 59.96875 61.722656 60.40625 61.699219 60.839844 61.6875 C 61.273438 61.675781 61.710938 61.675781 62.144531 61.691406 C 62.578125 61.707031 63.015625 61.734375 63.449219 61.777344 C 63.878906 61.820312 64.3125 61.875 64.742188 61.945312 C 65.171875 62.011719 65.597656 62.09375 66.023438 62.1875 C 66.449219 62.285156 66.871094 62.390625 67.289062 62.511719 C 67.707031 62.636719 68.121094 62.769531 68.53125 62.914062 C 68.941406 63.0625 69.34375 63.222656 69.746094 63.394531 C 70.144531 63.566406 70.539062 63.75 70.929688 63.945312 C 75.769531 56.535156 84.121094 51.980469 93.003906 51.980469 C 95.246094 51.980469 97.453125 52.265625 99.621094 52.828125 C 101.792969 53.390625 103.859375 54.21875 105.820312 55.308594 C 107.777344 56.402344 109.570312 57.71875 111.195312 59.265625 C 112.816406 60.816406 114.222656 62.542969 115.40625 64.445312 C 118.550781 62.597656 121.945312 61.675781 125.59375 61.683594 C 136.285156 61.683594 145.058594 70.050781 145.699219 80.589844 L 145.746094 80.589844 C 155.066406 80.589844 162.652344 88.171875 162.652344 97.496094 C 162.652344 98.441406 162.574219 99.378906 162.414062 100.3125 C 162.257812 101.242188 162.023438 102.15625 161.710938 103.050781 C 161.398438 103.941406 161.015625 104.800781 160.5625 105.628906 C 160.105469 106.460938 159.585938 107.242188 159 107.984375 C 158.410156 108.726562 157.765625 109.414062 157.066406 110.046875 C 156.363281 110.679688 155.613281 111.25 154.816406 111.757812 C 154.019531 112.265625 153.183594 112.703125 152.3125 113.070312 C 151.441406 113.4375 150.546875 113.730469 149.628906 113.945312 C 145.320312 125.058594 134.535156 132.476562 122.574219 132.476562 C 117.945312 132.476562 113.570312 131.429688 109.441406 129.339844 C 107.09375 131.171875 104.511719 132.574219 101.695312 133.542969 C 98.878906 134.511719 95.980469 135 93.003906 135 Z M 73.304688 123.207031 L 73.347656 123.207031 C 73.71875 123.222656 74.023438 123.371094 74.257812 123.660156 C 74.765625 124.277344 75.300781 124.867188 75.863281 125.429688 C 76.425781 125.992188 77.019531 126.527344 77.632812 127.035156 C 78.25 127.539062 78.890625 128.015625 79.554688 128.457031 C 80.21875 128.898438 80.902344 129.308594 81.605469 129.683594 C 82.308594 130.058594 83.03125 130.398438 83.769531 130.699219 C 84.503906 131.003906 85.257812 131.269531 86.019531 131.5 C 86.785156 131.730469 87.554688 131.921875 88.339844 132.074219 C 89.121094 132.230469 89.910156 132.34375 90.703125 132.417969 C 91.496094 132.496094 92.292969 132.53125 93.089844 132.527344 C 93.886719 132.523438 94.683594 132.484375 95.476562 132.402344 C 96.269531 132.320312 97.058594 132.199219 97.839844 132.039062 C 98.621094 131.878906 99.394531 131.683594 100.15625 131.449219 C 100.917969 131.210938 101.664062 130.9375 102.398438 130.628906 C 103.136719 130.320312 103.851562 129.976562 104.554688 129.59375 C 105.253906 129.214844 105.9375 128.800781 106.597656 128.355469 C 107.257812 127.90625 107.890625 127.425781 108.503906 126.917969 C 108.699219 126.753906 108.921875 126.660156 109.175781 126.636719 C 109.429688 126.613281 109.664062 126.660156 109.886719 126.78125 C 113.84375 128.929688 118.070312 130.003906 122.566406 130.003906 C 133.722656 130.003906 143.757812 122.953125 147.539062 112.460938 C 147.699219 112.019531 148.007812 111.753906 148.46875 111.667969 C 149.285156 111.507812 150.085938 111.28125 150.863281 110.988281 C 151.640625 110.691406 152.386719 110.332031 153.101562 109.90625 C 153.820312 109.484375 154.492188 109 155.125 108.457031 C 155.757812 107.917969 156.339844 107.328125 156.871094 106.683594 C 157.398438 106.042969 157.871094 105.363281 158.28125 104.640625 C 158.695312 103.914062 159.042969 103.164062 159.324219 102.378906 C 159.605469 101.597656 159.820312 100.796875 159.964844 99.976562 C 160.105469 99.15625 160.179688 98.332031 160.179688 97.5 C 160.179688 89.539062 153.703125 83.0625 145.742188 83.0625 C 145.351562 83.0625 144.949219 83.09375 144.601562 83.121094 C 144.425781 83.136719 144.261719 83.113281 144.097656 83.058594 C 143.933594 83.003906 143.789062 82.914062 143.660156 82.800781 C 143.535156 82.683594 143.4375 82.542969 143.367188 82.386719 C 143.296875 82.226562 143.261719 82.0625 143.261719 81.890625 C 143.261719 81.878906 143.261719 81.835938 143.261719 81.824219 C 143.261719 72.082031 135.335938 64.15625 125.59375 64.15625 C 123.824219 64.152344 122.097656 64.410156 120.40625 64.929688 C 118.714844 65.445312 117.140625 66.203125 115.679688 67.195312 C 115.535156 67.292969 115.378906 67.359375 115.207031 67.390625 C 115.035156 67.421875 114.867188 67.414062 114.699219 67.375 C 114.53125 67.335938 114.375 67.261719 114.238281 67.15625 C 114.101562 67.054688 113.988281 66.925781 113.90625 66.773438 C 113.390625 65.84375 112.816406 64.953125 112.183594 64.101562 C 111.546875 63.25 110.859375 62.441406 110.121094 61.683594 C 109.378906 60.921875 108.589844 60.214844 107.757812 59.558594 C 106.921875 58.902344 106.046875 58.304688 105.132812 57.765625 C 104.21875 57.226562 103.269531 56.75 102.292969 56.335938 C 101.3125 55.921875 100.3125 55.574219 99.289062 55.296875 C 98.265625 55.015625 97.226562 54.804688 96.171875 54.664062 C 95.121094 54.523438 94.0625 54.449219 93.003906 54.449219 C 84.59375 54.449219 76.707031 58.957031 72.421875 66.210938 C 72.339844 66.351562 72.230469 66.472656 72.101562 66.570312 C 71.972656 66.667969 71.828125 66.738281 71.671875 66.777344 C 71.511719 66.820312 71.351562 66.832031 71.191406 66.808594 C 71.03125 66.785156 70.878906 66.734375 70.738281 66.652344 C 67.851562 64.984375 64.742188 64.152344 61.410156 64.152344 C 51.292969 64.152344 42.925781 72.378906 42.75 82.496094 C 42.746094 82.773438 42.65625 83.023438 42.484375 83.238281 C 42.3125 83.457031 42.089844 83.601562 41.820312 83.671875 C 40.753906 83.941406 39.71875 84.296875 38.710938 84.738281 C 37.707031 85.179688 36.742188 85.703125 35.824219 86.304688 C 34.902344 86.90625 34.039062 87.578125 33.230469 88.324219 C 32.421875 89.070312 31.679688 89.875 31.007812 90.742188 C 30.332031 91.613281 29.734375 92.527344 29.210938 93.496094 C 28.6875 94.464844 28.25 95.46875 27.894531 96.507812 C 27.539062 97.546875 27.269531 98.609375 27.089844 99.691406 C 26.910156 100.777344 26.820312 101.871094 26.820312 102.96875 C 26.820312 113.945312 35.753906 122.878906 46.734375 122.878906 C 47.476562 122.878906 48.214844 122.835938 48.953125 122.753906 C 49.378906 122.703125 49.734375 122.839844 50.015625 123.160156 C 50.363281 123.554688 50.726562 123.933594 51.113281 124.289062 C 51.5 124.648438 51.902344 124.984375 52.324219 125.296875 C 52.742188 125.613281 53.179688 125.90625 53.628906 126.175781 C 54.082031 126.445312 54.546875 126.691406 55.023438 126.914062 C 55.5 127.136719 55.984375 127.332031 56.484375 127.503906 C 56.980469 127.671875 57.484375 127.820312 57.996094 127.9375 C 58.507812 128.054688 59.027344 128.148438 59.546875 128.210938 C 60.070312 128.277344 60.59375 128.3125 61.117188 128.324219 C 61.644531 128.332031 62.167969 128.316406 62.691406 128.273438 C 63.214844 128.226562 63.734375 128.15625 64.253906 128.058594 C 64.769531 127.957031 65.277344 127.832031 65.78125 127.679688 C 66.285156 127.53125 66.777344 127.351562 67.261719 127.148438 C 67.75 126.945312 68.222656 126.71875 68.683594 126.464844 C 69.144531 126.214844 69.589844 125.9375 70.023438 125.636719 C 70.453125 125.339844 70.871094 125.019531 71.269531 124.675781 C 71.667969 124.335938 72.046875 123.972656 72.410156 123.589844 C 72.65625 123.335938 72.953125 123.207031 73.308594 123.207031 Z M 73.304688 123.207031 " fill-opacity="1" fill-rule="nonzero"/></g></svg>